<svg width="338" height="300" viewBox="0 0 338 300" fill="none" xmlns="http://www.w3.org/2000/svg">
<path d="M70.418 226.153H80.6632V236.399H70.418V226.153Z" fill="black" stroke="white" stroke-width="2.25"/>
<path d="M205.616 263.639V273.884H194.246H189.123V263.639H205.616Z" fill="black" stroke="white" stroke-width="2.25"/>
<path d="M70.418 263.639H80.6632V273.884H70.418V263.639Z" fill="black" stroke="white" stroke-width="2.25"/>
<path d="M205.616 226.153V236.399H200.493H189.123V226.153H205.616Z" fill="black" stroke="white" stroke-width="2.25"/>
<path d="M65.6264 137.227L65.3804 136.437H64.5522H50.5499C44.28 136.437 39.1797 131.336 39.1797 125.066L39.2102 87.285C39.3785 81.1462 44.3869 76.2104 50.5499 76.2104H63.0452H64.1702V75.0854V43.8472C64.1702 26.9947 74.0333 12.4283 88.2794 5.52557C88.9464 5.40573 90.2194 5.09947 91.739 4.7216C92.6361 4.49852 93.6494 4.24266 94.7127 3.97419C95.6503 3.73745 96.6267 3.4909 97.5966 3.24838C99.6785 2.72776 101.752 2.21994 103.442 1.8427C104.287 1.65395 105.026 1.50002 105.617 1.39385C106.235 1.28284 106.613 1.23885 106.779 1.23885H125.204H169.255C192.749 1.23885 211.863 20.3536 211.863 43.8472V75.0915V76.2165H212.988H225.484C231.754 76.2165 236.854 81.3167 236.854 87.5867V125.072C236.854 131.342 231.753 136.443 225.484 136.443H211.481H210.652L210.407 137.235C209.199 141.136 207.294 144.793 204.618 147.912L204.617 147.912L180.628 175.901C178.928 177.882 176.98 179.582 174.863 181.043L174.378 181.379V181.969V194.852V195.765L175.27 195.953L230.606 207.616V298.875H45.4268L45.4273 207.622L100.763 195.947L101.656 195.758V194.846V181.963V181.373L101.17 181.037C99.0532 179.576 97.1053 177.876 95.406 175.895C95.4058 175.895 95.4057 175.895 95.4056 175.895L71.416 147.906L71.4156 147.906C68.74 144.788 66.8408 141.131 65.6264 137.227ZM177.989 163.243L178.018 163.214L178.044 163.184L196.835 141.256C199.924 137.653 201.618 133.062 201.618 128.327V43.8472C201.618 29.5558 192.251 17.5471 179.4 13.2654L178.394 12.9301L178 13.9148L166.474 42.7222H109.56L98.0337 13.9148L97.6398 12.9301L96.6336 13.2654C83.782 17.5471 74.4155 29.5558 74.4155 43.8472V128.321C74.4155 133.049 76.1094 137.647 79.2048 141.244C79.2051 141.245 79.2054 141.245 79.2057 141.245L97.9959 163.171L98.0217 163.202L98.0497 163.23L107.629 172.928L107.722 173.022L107.835 173.093C110.927 175.014 114.498 176.172 118.273 176.172H157.76C161.536 176.172 165.107 175.014 168.204 173.093L168.317 173.023L168.41 172.928L177.989 163.243ZM117.304 148.933C114.093 148.696 111.701 148.145 110.117 147.188C108.621 146.285 107.8 144.999 107.735 142.998C107.703 142.018 107.936 141.393 108.293 140.949C108.668 140.482 109.278 140.09 110.218 139.774C112.035 139.164 114.62 138.973 117.867 138.733C118.071 138.717 118.277 138.702 118.486 138.687H157.537C161.142 139.024 163.934 139.421 165.815 140.155C166.746 140.519 167.363 140.932 167.744 141.381C168.103 141.805 168.307 142.324 168.304 143.042C168.296 144.79 167.897 146.013 166.72 146.925C165.444 147.915 163.077 148.688 158.716 148.934C154.344 149.18 144.004 149.181 134.712 149.119C130.076 149.088 125.716 149.041 122.514 149.002C120.914 148.983 119.603 148.965 118.692 148.952C118.237 148.946 117.881 148.941 117.64 148.938L117.365 148.933L117.304 148.933ZM226.609 87.5806V86.4556H225.484H212.988H211.863V87.5806V125.066V126.191H212.988H225.484H226.609V125.066V87.5806ZM132.894 187.543V186.418H131.769H118.273C116.575 186.418 114.895 186.234 113.213 185.951L111.901 185.731V187.061V197.039V197.58L112.323 197.918L131.066 212.911L132.894 214.374V212.033V187.543ZM220.361 215.764V214.83L219.443 214.658L171.131 205.598L170.624 205.503L170.221 205.825L138.017 231.584L105.813 205.831L105.41 205.509L104.903 205.604L56.5903 214.658L55.6726 214.83V215.764V287.505V288.63H56.7976H219.236H220.361V287.505V215.764ZM163.71 197.912L164.132 197.574V197.033V187.055V185.72L162.817 185.946C161.137 186.234 159.452 186.418 157.76 186.418H144.264H143.139V187.543V212.027V214.367L144.967 212.905L163.71 197.912ZM50.5499 86.4556H49.4249V87.5806V125.066V126.191H50.5499H63.0452H64.1702V125.066V87.5806V86.4556H63.0452H50.5499ZM116.21 31.7697L116.493 32.477H117.254H158.77H159.532L159.814 31.7699L167.313 13.027L167.93 11.4841H166.268H109.759H108.098L108.714 13.0268L116.21 31.7697ZM186.873 87.5806C186.873 95.4297 181.668 102.034 174.537 104.306C172.144 104.747 170.343 104.992 168.564 104.958C166.793 104.923 164.994 104.61 162.63 103.875C156.187 101.251 151.637 94.9396 151.637 87.5806C151.637 77.8696 159.544 69.9627 169.255 69.9627C178.966 69.9627 186.873 77.8696 186.873 87.5806ZM124.396 87.5806C124.396 94.936 119.851 101.245 113.413 103.872C111.109 104.543 109.359 104.933 107.593 105.022C105.831 105.11 103.995 104.902 101.531 104.303C94.3805 102.052 89.1607 95.4411 89.1607 87.5806C89.1607 77.8696 97.0675 69.9627 106.779 69.9627C116.49 69.9627 124.396 77.8696 124.396 87.5806ZM176.628 87.5806C176.628 83.5182 173.317 80.208 169.255 80.208C165.192 80.208 161.882 83.5182 161.882 87.5806C161.882 91.643 165.192 94.9533 169.255 94.9533C173.317 94.9533 176.628 91.643 176.628 87.5806ZM114.151 87.5806C114.151 83.5182 110.841 80.208 106.779 80.208C102.716 80.208 99.406 83.5182 99.406 87.5806C99.406 91.643 102.716 94.9533 106.779 94.9533C110.841 94.9533 114.151 91.643 114.151 87.5806Z" fill="black" stroke="white" stroke-width="2.25"/>
</svg>
