<svg width="250" height="250" viewBox="0 0 250 250" fill="none" xmlns="http://www.w3.org/2000/svg">
<path d="M60.5229 240.812H60.8729V240.76C70.8531 240.549 78.8882 232.421 78.9413 222.396V222.394C78.9413 212.222 70.6952 203.976 60.5229 203.976C50.3506 203.976 42.1045 212.222 42.1045 222.394C42.1045 232.566 50.3506 240.812 60.5229 240.812ZM33.2191 222.346C33.2191 207.267 45.4436 195.043 60.5226 195.042C75.5911 195.069 87.8003 207.278 87.8267 222.346C87.8267 237.425 75.6021 249.65 60.5229 249.65C45.4437 249.65 33.2191 237.425 33.2191 222.346Z" fill="black" stroke="white" stroke-width="0.7"/>
<path d="M125.191 240.812V240.76C135.171 240.549 143.207 232.421 143.26 222.396V222.394C143.26 212.222 135.014 203.976 124.841 203.976C114.669 203.976 106.423 212.222 106.423 222.394C106.423 232.566 114.669 240.812 124.841 240.812H125.191ZM97.5375 222.346C97.5375 207.267 109.762 195.043 124.841 195.042C139.91 195.069 152.119 207.278 152.145 222.347C152.145 237.426 139.92 249.65 124.841 249.65C109.762 249.65 97.5375 237.425 97.5375 222.346Z" fill="black" stroke="white" stroke-width="0.7"/>
<path d="M189.158 240.812H189.508V240.76C199.488 240.549 207.523 232.421 207.576 222.396V222.394C207.576 212.222 199.33 203.976 189.158 203.976C178.985 203.976 170.739 212.222 170.739 222.394C170.739 232.566 178.985 240.812 189.158 240.812ZM161.854 222.346C161.854 207.267 174.078 195.043 189.157 195.042C204.226 195.069 216.435 207.278 216.461 222.347C216.461 237.426 204.237 249.65 189.158 249.65C174.078 249.65 161.854 237.425 161.854 222.346Z" fill="black" stroke="white" stroke-width="0.7"/>
<path d="M83.35 95.1964C83.35 85.7019 91.0467 78.0052 100.541 78.0052C110.036 78.0052 117.732 85.7019 117.732 95.1964C117.732 104.691 110.036 112.388 100.541 112.388C91.0467 112.388 83.35 104.691 83.35 95.1964ZM92.2833 95.1964C92.2833 99.7834 96.0021 103.502 100.589 103.502C105.176 103.502 108.895 99.7834 108.895 95.1964C108.895 90.6094 105.176 86.8906 100.589 86.8906C96.0021 86.8906 92.2833 90.6094 92.2833 95.1964Z" fill="black" stroke="white" stroke-width="0.7"/>
<path d="M131.95 95.2443C131.95 85.7498 139.646 78.0531 149.141 78.0531C158.635 78.0531 166.332 85.7498 166.332 95.2443C166.332 104.739 158.635 112.436 149.141 112.436C139.646 112.436 131.95 104.739 131.95 95.2443ZM140.835 95.1964C140.835 99.7834 144.554 103.502 149.141 103.502C153.728 103.502 157.447 99.7834 157.447 95.1964C157.447 90.6094 153.728 86.8906 149.141 86.8906C144.554 86.8906 140.835 90.6094 140.835 95.1964Z" fill="black" stroke="white" stroke-width="0.7"/>
<path d="M100.543 125.069H149.14C151.594 125.069 153.583 127.059 153.583 129.512C153.583 131.965 151.594 133.955 149.14 133.955H100.543C98.0892 133.955 96.1 131.965 96.1 129.512C96.1 127.059 98.0892 125.069 100.543 125.069Z" fill="black" stroke="white" stroke-width="0.7"/>
<path d="M233.09 38.587L232.983 38.2651C239.017 42.2393 243.175 48.5213 244.461 55.6601C247.049 70.0318 237.496 83.781 223.124 86.3683L222.836 86.4201V86.7128V109.381C222.811 120.877 213.498 130.19 202.002 130.216H191.938H191.588V130.566V182.566C191.588 185.02 189.599 187.009 187.146 187.009H62.5358C60.0824 187.009 58.0932 185.02 58.0932 182.566V130.422V130.072H57.7432H47.6314C36.1353 130.046 26.8229 120.734 26.7969 109.238V86.7128V86.4243L26.5137 86.3692C19.155 84.9384 12.7493 80.4507 8.8907 74.0231C1.37462 61.5032 5.43183 45.2602 17.9523 37.7447L17.9714 37.7333L17.9888 37.7195C18.311 37.4657 18.667 37.2574 19.0456 37.1014C21.3142 36.1668 23.9109 37.2475 24.8461 39.516C25.7807 41.7846 24.7 44.3813 22.4315 45.3165L22.4063 45.3269L22.383 45.341C19.9801 46.802 17.9636 48.8186 16.5026 51.2214C11.4651 59.506 14.0985 70.3054 22.383 75.3422C30.6676 80.3791 41.467 77.7464 46.5038 69.4618C51.5413 61.1772 48.908 50.3779 40.6234 45.341L40.6002 45.3269L40.5751 45.3166C40.1956 45.1599 39.8402 44.9521 39.5181 44.6984C37.5911 43.1795 37.2602 40.3862 38.7785 38.4592C40.2973 36.5322 43.0906 36.2012 45.0176 37.7195L45.0344 37.7327L45.0526 37.7438C51.5316 41.6768 56.011 48.2008 57.3544 55.6601L57.6443 55.6079L57.3544 55.6601C59.9429 70.0318 50.3899 83.781 36.0182 86.3689L35.7302 86.4208V86.7134L35.7302 109.383L35.7302 109.384C35.7574 115.971 41.0903 121.304 47.6771 121.331H47.6785H57.7432H58.0932V120.981V114.99L58.0932 114.989C58.0038 79.9099 85.083 50.7472 120.073 48.2418L120.398 48.2185V47.8926V34.7128V34.4477L120.143 34.3759C114.332 32.7399 109.791 28.1988 108.155 22.3876L107.847 22.4742L108.155 22.3876C105.56 13.1722 110.927 3.59865 120.143 1.00367C129.358 -1.59129 138.932 3.77656 141.527 12.9919C144.122 22.2073 138.754 31.7815 129.539 34.3759L129.283 34.4477V34.7128V47.8447V48.1706L129.608 48.1938C164.598 50.6992 191.678 79.862 191.588 114.941V114.942V120.837V121.187H191.938H202.051L202.052 121.187C208.639 121.16 213.972 115.827 213.999 109.24V109.239V86.7134V86.4265L213.718 86.3702C206.491 84.9239 200.195 80.5273 196.35 74.2399C188.73 61.7827 192.652 45.5065 205.109 37.887L205.127 37.8761L205.143 37.8633C205.465 37.6095 205.821 37.4012 206.2 37.2452C208.468 36.3106 211.065 37.3913 212 39.6597C212.935 41.9283 211.854 44.5251 209.586 45.4603L209.56 45.4707L209.537 45.4848C207.134 46.9457 205.118 48.9623 203.657 51.3652C198.62 59.6498 201.253 70.4491 209.537 75.486C217.822 80.5235 228.621 77.8901 233.658 69.6056C238.695 61.321 236.062 50.5217 227.778 45.4848L227.754 45.4707L227.729 45.4604C227.35 45.3036 226.994 45.0959 226.672 44.8422C224.745 43.3233 224.414 40.53 225.933 38.603C227.451 36.676 230.245 36.345 232.172 37.8633L233.09 38.587ZM182.353 178.124H182.701L182.703 177.776L183.086 114.944V114.942C183.086 82.88 157.095 56.8884 125.032 56.8884C92.9702 56.8884 66.9785 82.88 66.9785 114.942V177.774V178.124H67.3285H182.353ZM124.841 9.34498C120.174 9.34498 116.391 13.1279 116.391 17.7946C116.391 22.4613 120.174 26.2442 124.841 26.2442C129.507 26.2442 133.29 22.4613 133.29 17.7946C133.29 13.1279 129.507 9.34498 124.841 9.34498Z" fill="black" stroke="white" stroke-width="0.7"/>
</svg>
