<svg width="175" height="175" viewBox="0 0 175 175" fill="none" xmlns="http://www.w3.org/2000/svg">
<g clip-path="url(#clip0)">
<path d="M62.9987 124.596V124.556C67.0968 124.346 70.3613 120.975 70.3951 116.828V116.825C70.3951 112.533 66.9158 109.054 62.6237 109.054C58.3316 109.054 54.8523 112.533 54.8523 116.825C54.8523 121.117 58.3316 124.596 62.6237 124.596H62.9987ZM49.5645 116.795C49.5645 109.583 55.4112 103.736 62.6233 103.736C69.829 103.752 75.6664 109.589 75.683 116.795C75.683 124.007 69.8361 129.854 62.6237 129.854C55.4114 129.854 49.5645 124.007 49.5645 116.795Z" fill="black" stroke="white" stroke-width="0.75"/>
<path d="M112.751 124.596V124.556C116.849 124.346 120.113 120.975 120.147 116.828V116.825C120.147 112.533 116.668 109.054 112.376 109.054C108.084 109.054 104.604 112.533 104.604 116.825C104.604 121.117 108.084 124.596 112.376 124.596H112.751ZM99.3164 116.795C99.3164 109.583 105.163 103.736 112.375 103.736C119.581 103.752 125.419 109.59 125.435 116.796C125.435 124.008 119.588 129.854 112.376 129.854C105.163 129.854 99.3164 124.007 99.3164 116.795Z" fill="black" stroke="white" stroke-width="0.75"/>
<path d="M147.202 110.334V110.709H147.577H148.392C151.703 110.709 154.387 113.394 154.387 116.704V135.752C154.372 139.04 151.71 141.702 148.422 141.719C148.422 141.719 148.421 141.719 148.421 141.719L147.577 141.719H147.202V142.094V168.658C147.187 171.947 144.524 174.609 141.236 174.625H33.7649C30.4765 174.609 27.8145 171.948 27.7984 168.659V142.094V141.719H27.4234L26.5798 141.719C26.5793 141.719 26.5788 141.719 26.5783 141.719C23.2906 141.702 20.6294 139.041 20.6133 135.753V116.675C20.6294 113.387 23.2906 110.726 26.5783 110.709C26.5788 110.709 26.5793 110.709 26.5798 110.709L27.4234 110.709H27.7984V110.334V96.9C27.7984 89.1318 30.5147 83.9074 34.4635 80.6179C38.4239 77.3188 43.6666 75.9311 48.7673 75.9311H84.4813H84.8563V75.5561V63.0879V62.8013L84.5797 62.726C80.7729 61.6907 77.799 58.7166 76.7633 54.9096C75.1501 48.9799 78.65 42.8655 84.5798 41.2522C90.5095 39.639 96.6243 43.1389 98.2371 49.0686L98.599 48.9702L98.2372 49.0686C99.8504 54.9984 96.3505 61.1132 90.4208 62.726L90.1442 62.8013V63.0879V75.5561V75.9311H90.5192H126.233C134.001 75.9311 139.226 78.6475 142.515 82.5963C145.814 86.5567 147.202 91.7993 147.202 96.9V110.334ZM81.6006 52.4438H81.6728C81.8661 55.4939 84.4013 57.908 87.5002 57.9081L87.5044 57.908C90.7039 57.8729 93.2792 55.269 93.2792 52.0696C93.2795 48.8446 90.6652 46.2299 87.4403 46.2299C84.2154 46.2295 81.6006 48.8438 81.6006 52.0688V52.4438ZM148.422 136.431C148.796 136.431 149.099 136.128 149.099 135.754V116.674C149.099 116.3 148.796 115.997 148.422 115.997H144.558C143.098 115.997 141.914 114.813 141.914 113.353V96.9C141.914 94.5773 141.542 90.665 139.386 87.3229C137.213 83.9527 133.261 81.219 126.233 81.219H48.7673C46.4446 81.219 42.5322 81.5912 39.1902 83.7468C35.8199 85.9207 33.0862 89.872 33.0862 96.9V113.383C33.0862 114.844 31.9024 116.027 30.4423 116.027H26.6082C26.2343 116.027 25.9313 116.33 25.9313 116.704V135.754C25.9313 136.128 26.2343 136.431 26.6082 136.431H30.4423C31.9024 136.431 33.0862 137.614 33.0862 139.075V168.66C33.0862 169.034 33.3892 169.337 33.7631 169.337H141.237C141.611 169.337 141.914 169.034 141.914 168.66V139.075C141.914 137.614 143.098 136.431 144.558 136.431H148.422Z" fill="black" stroke="white" stroke-width="0.75"/>
<path d="M84.8574 133.55C84.8574 132.09 86.0413 130.906 87.5014 130.906C88.9615 130.906 90.1453 132.09 90.1453 133.55V147.165C90.1453 148.625 88.9615 149.809 87.5014 149.809C86.0413 149.809 84.8574 148.625 84.8574 147.165V133.55Z" fill="black" stroke="white" stroke-width="0.75"/>
<path d="M116.157 12.2425L116.158 12.2434C117.194 13.2729 117.2 14.948 116.171 15.9848C115.141 17.0217 113.466 17.0276 112.429 15.9981L112.421 15.9902L112.412 15.9813L112.412 15.9812C98.8556 2.43416 77.0128 2.23377 63.2105 15.3741V15.2194L62.5507 15.9901C62.4621 16.0935 62.3656 16.19 62.2622 16.2786L62.2622 16.2786C61.1531 17.2284 59.4841 17.0992 58.5342 15.9901C57.5844 14.8809 57.7136 13.212 58.8228 12.2621L58.8337 12.2527L58.844 12.2425C74.6715 -3.58094 100.329 -3.58095 116.157 12.2425Z" fill="black" stroke="white" stroke-width="0.75"/>
<path d="M107.492 21.0884L107.493 21.089C107.997 21.5893 108.279 22.2715 108.275 22.9818C108.267 24.4413 107.077 25.6179 105.617 25.6101C104.921 25.5998 104.256 25.3147 103.768 24.817L103.765 24.8142C94.8723 15.9269 80.4596 15.9269 71.5666 24.8142L71.5563 24.8245L71.5468 24.8356C71.4582 24.939 71.3617 25.0355 71.2583 25.124L71.2583 25.1241C70.1492 26.0739 68.4802 25.9447 67.5303 24.8355C66.5805 23.7264 66.7097 22.0574 67.8189 21.1076L67.8296 21.0984L67.8396 21.0884C78.8018 10.1686 96.5301 10.1686 107.492 21.0884Z" fill="black" stroke="white" stroke-width="0.75"/>
<path d="M98.8651 30.1812L98.8651 30.1812C99.8149 31.2903 99.6857 32.9593 98.5766 33.9092C97.4674 34.859 95.7985 34.7298 94.8486 33.6206L94.8388 33.6092L94.8281 33.5986C90.7731 29.5694 84.2259 29.5694 80.1708 33.5986L80.1601 33.6092L80.1503 33.6207C80.0617 33.7241 79.9652 33.8206 79.8618 33.9092L79.8618 33.9092C78.7527 34.859 77.0837 34.7298 76.1338 33.6206C75.184 32.5115 75.3132 30.8426 76.4224 29.8927L76.4329 29.8837L76.4428 29.8739C82.5604 23.7945 92.4385 23.7945 98.5562 29.8739L98.566 29.8837L98.5766 29.8927C98.68 29.9813 98.7765 30.0778 98.8651 30.1812Z" fill="black" stroke="white" stroke-width="0.75"/>
</g>
<defs>
<clipPath id="clip0">
<rect width="175" height="175" fill="white"/>
</clipPath>
</defs>
</svg>
