<svg xmlns="http://www.w3.org/2000/svg" width="175" height="175" viewBox="0 0 175 175" fill="none">
<g clip-path="url(#clip0)">
<path d="M62.6243 103.111H62.6237C55.0662 103.111 48.9395 109.237 48.9395 116.795C48.9395 124.352 55.0662 130.479 62.6237 130.479C70.1812 130.479 76.308 124.352 76.308 116.795L76.308 116.794C76.2911 109.244 70.1746 103.127 62.6243 103.111ZM62.6227 123.941L62.3737 123.942V123.967C58.5426 123.835 55.4773 120.688 55.4773 116.825C55.4773 112.878 58.6768 109.679 62.6237 109.679C66.5703 109.679 69.7695 112.878 69.7701 116.824C69.7376 120.753 66.5517 123.926 62.6227 123.941Z" fill="black" stroke="black" stroke-width="0.5"/>
<path d="M112.376 103.111H112.376C104.818 103.111 98.6914 109.237 98.6914 116.795C98.6914 124.352 104.818 130.479 112.376 130.479C119.933 130.479 126.06 124.352 126.06 116.795V116.794C126.043 109.244 119.927 103.127 112.376 103.111ZM112.375 123.941L112.126 123.942V123.967C108.295 123.835 105.229 120.688 105.229 116.825C105.229 112.878 108.429 109.679 112.376 109.679C116.322 109.679 119.522 112.878 119.522 116.824C119.489 120.753 116.304 123.926 112.375 123.941Z" fill="black" stroke="black" stroke-width="0.5"/>
<path d="M84.2313 63.2774V75.3061H48.7673C43.5637 75.3061 38.1655 76.7206 34.0635 80.1377C29.9537 83.5613 27.1734 88.9716 27.1734 96.9V110.084L26.5781 110.084L26.5769 110.084C22.9453 110.102 20.0055 113.041 19.9883 116.673V116.674L19.9883 135.754L19.9883 135.755C20.0055 139.387 22.9453 142.326 26.5769 142.344H26.5781H27.1734L27.1734 168.66L27.1734 168.661C27.1906 172.293 30.1304 175.233 33.7619 175.25H33.7631H141.237L141.239 175.25C144.87 175.233 147.81 172.293 147.827 168.661V168.66V142.344H148.422H148.424C152.055 142.326 154.995 139.387 155.012 135.755V135.754V116.704C155.012 113.048 152.048 110.084 148.392 110.084H147.827V96.9C147.827 91.6965 146.413 86.2983 142.996 82.1963C139.572 78.0865 134.162 75.3061 126.233 75.3061H90.7692V63.2774C96.9199 61.4984 100.527 55.1057 98.8402 48.9046C97.1368 42.6418 90.6785 38.9453 84.4157 40.6492C78.1529 42.353 74.4564 48.8109 76.1603 55.0737C77.2373 59.0327 80.2991 62.1391 84.2313 63.2774ZM82.286 52.0688V51.8188H82.2315C82.362 49.0551 84.6443 46.8545 87.4402 46.8549C90.32 46.8549 92.6545 49.1898 92.6542 52.0695C92.6542 54.9261 90.3553 57.251 87.4989 57.283C84.6198 57.2823 82.286 54.9481 82.286 52.0688ZM148.474 135.754C148.474 135.782 148.451 135.806 148.422 135.806H144.558C142.753 135.806 141.289 137.269 141.289 139.075V168.66C141.289 168.689 141.266 168.712 141.237 168.712H33.7631C33.7344 168.712 33.7112 168.689 33.7112 168.66V139.075C33.7112 137.269 32.2476 135.806 30.4423 135.806H26.6082C26.5795 135.806 26.5563 135.782 26.5563 135.754V116.704C26.5563 116.676 26.5795 116.652 26.6082 116.652H30.4423C32.2476 116.652 33.7112 115.189 33.7112 113.383V96.9C33.7112 90.0631 36.3543 86.3198 39.529 84.2721C42.7224 82.2122 46.4917 81.844 48.7673 81.844H126.233C133.07 81.844 136.813 84.4871 138.861 87.6617C140.921 90.8552 141.289 94.6245 141.289 96.9V113.353C141.289 115.159 142.753 116.622 144.558 116.622H148.422C148.451 116.622 148.474 116.645 148.474 116.674V135.754Z" fill="black" stroke="black" stroke-width="0.5"/>
<path d="M87.5014 130.281C85.6961 130.281 84.2324 131.745 84.2324 133.55V147.165C84.2324 148.971 85.6961 150.434 87.5014 150.434C89.3066 150.434 90.7703 148.971 90.7703 147.165V133.55C90.7703 131.745 89.3066 130.281 87.5014 130.281Z" fill="black" stroke="black" stroke-width="0.5"/>
</g>
<defs>
<clipPath id="clip0">
<rect width="175" height="175" fill="white"/>
</clipPath>
</defs>
</svg>