<svg width="338" height="300" viewBox="0 0 338 300" fill="none" xmlns="http://www.w3.org/2000/svg">
<g clip-path="url(#clip0)">
<path d="M70.418 226.153H80.6632V236.399H70.418V226.153Z" fill="black" stroke="white" stroke-width="2.25"/>
<path d="M205.616 263.639V273.884H194.246H189.123V263.639H205.616Z" fill="black" stroke="white" stroke-width="2.25"/>
<path d="M70.418 263.639H80.6632V273.884H70.418V263.639Z" fill="black" stroke="white" stroke-width="2.25"/>
<path d="M205.616 226.153V236.399H200.493H189.123V226.153H205.616Z" fill="black" stroke="white" stroke-width="2.25"/>
<path d="M326.57 44.9723H336.816V55.2175H326.57V44.9723Z" fill="black" stroke="white" stroke-width="2.25"/>
<mask id="path-6-inside-1" fill="white">
<path fill-rule="evenodd" clip-rule="evenodd" d="M228.607 43.8472H212.988C212.988 19.7323 193.369 0.113846 169.254 0.113846H125.204H106.778C104.554 0.113846 90.0699 4.11928 87.9345 4.44264C73.2397 11.4956 63.0446 26.4863 63.0446 43.8472V75.0854H50.5494C43.7648 75.0854 38.2616 80.5215 38.0846 87.2695L38.0541 125.066C38.0541 131.958 43.6581 137.562 50.5494 137.562H64.5516C65.8054 141.592 67.7731 145.389 70.5613 148.638L94.5512 176.628C96.3206 178.69 98.3431 180.453 100.53 181.963V194.846L36.236 206.911C16.5748 210.59 0.568359 229.876 0.568359 249.888V300H275.464V249.888C275.464 229.876 259.457 210.59 239.79 206.905L175.502 194.852V181.969C177.689 180.459 179.712 178.696 181.481 176.634L205.471 148.644C208.259 145.396 210.233 141.598 211.481 137.568H225.483C232.374 137.568 237.978 131.964 237.978 125.072V87.5867C237.978 80.6954 232.374 75.0915 225.483 75.0915H212.988V68.8438H200.492V128.327C200.492 132.794 198.894 137.125 195.981 140.524L177.189 162.451L167.61 172.137C164.669 173.961 161.301 175.047 157.76 175.047H118.273C114.731 175.047 111.363 173.961 108.428 172.137L98.8495 162.439L80.0578 140.512C77.1384 137.119 75.5399 132.781 75.5399 128.321V43.8472C75.5399 30.0646 84.5727 18.4693 96.9887 14.3327L108.798 43.8472H167.235L179.044 14.3327C191.46 18.4693 200.492 30.0646 200.492 43.8472V56.3425H254.134L279.125 81.333H312.95V68.8377H284.298L271.803 56.3425H312.95V43.8472H244.226L253.597 31.352H312.95V18.8567H247.35L228.607 43.8472ZM225.483 125.066V87.5806H212.988V125.066H225.483ZM131.769 187.543H118.273C116.494 187.543 114.749 187.35 113.026 187.061V197.039L131.769 212.033V187.543ZM38.5422 219.18C24.7352 221.773 13.0636 235.837 13.0636 249.888V287.505H44.3017V218.107L38.5422 219.18ZM262.969 287.505V249.888C262.969 235.837 251.297 221.773 237.484 219.187L231.731 218.107V287.505H262.969ZM219.235 287.505V215.764L170.923 206.703L138.016 233.024L105.109 206.71L56.797 215.764V287.505H219.235ZM144.264 212.027L163.007 197.033V187.055C161.283 187.35 159.532 187.543 157.76 187.543H144.264V212.027ZM63.0446 87.5806H50.5494V125.066H63.0446V87.5806ZM109.758 12.6091L117.254 31.352H158.769L166.268 12.6091H109.758Z"/>
<path d="M157.589 137.562H118.444C111.484 138.08 106.456 138.275 106.61 143.034C106.764 147.794 110.706 149.579 117.254 150.057C117.254 150.057 149.947 150.555 158.779 150.057C167.61 149.559 169.411 146.912 169.428 143.047C169.445 139.182 164.813 138.235 157.589 137.562Z"/>
<path fill-rule="evenodd" clip-rule="evenodd" d="M174.809 105.399C182.418 103.008 187.997 95.9698 187.997 87.5806C187.997 77.2483 179.587 68.8377 169.254 68.8377C158.922 68.8377 150.511 77.2483 150.511 87.5806C150.511 95.4329 155.377 102.156 162.25 104.935C167.168 106.471 169.923 106.305 174.809 105.399ZM175.502 87.5806C175.502 84.1396 172.695 81.333 169.254 81.333C165.813 81.333 163.007 84.1396 163.007 87.5806C163.007 91.0217 165.813 93.8283 169.254 93.8283C172.695 93.8283 175.502 91.0217 175.502 87.5806Z"/>
<path fill-rule="evenodd" clip-rule="evenodd" d="M113.782 104.935C120.655 102.156 125.521 95.4329 125.521 87.5806C125.521 77.2483 117.11 68.8377 106.778 68.8377C96.4457 68.8377 88.0352 77.2483 88.0352 87.5806C88.0352 95.9698 93.6147 103.008 101.229 105.387C106.329 106.633 109.065 106.314 113.782 104.935ZM113.026 87.5806C113.026 84.1396 110.219 81.333 106.778 81.333C103.337 81.333 100.53 84.1396 100.53 87.5806C100.53 91.0217 103.337 93.8283 106.778 93.8283C110.219 93.8283 113.026 91.0217 113.026 87.5806Z"/>
</mask>
<path fill-rule="evenodd" clip-rule="evenodd" d="M228.607 43.8472H212.988C212.988 19.7323 193.369 0.113846 169.254 0.113846H125.204H106.778C104.554 0.113846 90.0699 4.11928 87.9345 4.44264C73.2397 11.4956 63.0446 26.4863 63.0446 43.8472V75.0854H50.5494C43.7648 75.0854 38.2616 80.5215 38.0846 87.2695L38.0541 125.066C38.0541 131.958 43.6581 137.562 50.5494 137.562H64.5516C65.8054 141.592 67.7731 145.389 70.5613 148.638L94.5512 176.628C96.3206 178.69 98.3431 180.453 100.53 181.963V194.846L36.236 206.911C16.5748 210.59 0.568359 229.876 0.568359 249.888V300H275.464V249.888C275.464 229.876 259.457 210.59 239.79 206.905L175.502 194.852V181.969C177.689 180.459 179.712 178.696 181.481 176.634L205.471 148.644C208.259 145.396 210.233 141.598 211.481 137.568H225.483C232.374 137.568 237.978 131.964 237.978 125.072V87.5867C237.978 80.6954 232.374 75.0915 225.483 75.0915H212.988V68.8438H200.492V128.327C200.492 132.794 198.894 137.125 195.981 140.524L177.189 162.451L167.61 172.137C164.669 173.961 161.301 175.047 157.76 175.047H118.273C114.731 175.047 111.363 173.961 108.428 172.137L98.8495 162.439L80.0578 140.512C77.1384 137.119 75.5399 132.781 75.5399 128.321V43.8472C75.5399 30.0646 84.5727 18.4693 96.9887 14.3327L108.798 43.8472H167.235L179.044 14.3327C191.46 18.4693 200.492 30.0646 200.492 43.8472V56.3425H254.134L279.125 81.333H312.95V68.8377H284.298L271.803 56.3425H312.95V43.8472H244.226L253.597 31.352H312.95V18.8567H247.35L228.607 43.8472ZM225.483 125.066V87.5806H212.988V125.066H225.483ZM131.769 187.543H118.273C116.494 187.543 114.749 187.35 113.026 187.061V197.039L131.769 212.033V187.543ZM38.5422 219.18C24.7352 221.773 13.0636 235.837 13.0636 249.888V287.505H44.3017V218.107L38.5422 219.18ZM262.969 287.505V249.888C262.969 235.837 251.297 221.773 237.484 219.187L231.731 218.107V287.505H262.969ZM219.235 287.505V215.764L170.923 206.703L138.016 233.024L105.109 206.71L56.797 215.764V287.505H219.235ZM144.264 212.027L163.007 197.033V187.055C161.283 187.35 159.532 187.543 157.76 187.543H144.264V212.027ZM63.0446 87.5806H50.5494V125.066H63.0446V87.5806ZM109.758 12.6091L117.254 31.352H158.769L166.268 12.6091H109.758Z" fill="black"/>
<path d="M157.589 137.562H118.444C111.484 138.08 106.456 138.275 106.61 143.034C106.764 147.794 110.706 149.579 117.254 150.057C117.254 150.057 149.947 150.555 158.779 150.057C167.61 149.559 169.411 146.912 169.428 143.047C169.445 139.182 164.813 138.235 157.589 137.562Z" fill="black"/>
<path fill-rule="evenodd" clip-rule="evenodd" d="M174.809 105.399C182.418 103.008 187.997 95.9698 187.997 87.5806C187.997 77.2483 179.587 68.8377 169.254 68.8377C158.922 68.8377 150.511 77.2483 150.511 87.5806C150.511 95.4329 155.377 102.156 162.25 104.935C167.168 106.471 169.923 106.305 174.809 105.399ZM175.502 87.5806C175.502 84.1396 172.695 81.333 169.254 81.333C165.813 81.333 163.007 84.1396 163.007 87.5806C163.007 91.0217 165.813 93.8283 169.254 93.8283C172.695 93.8283 175.502 91.0217 175.502 87.5806Z" fill="black"/>
<path fill-rule="evenodd" clip-rule="evenodd" d="M113.782 104.935C120.655 102.156 125.521 95.4329 125.521 87.5806C125.521 77.2483 117.11 68.8377 106.778 68.8377C96.4457 68.8377 88.0352 77.2483 88.0352 87.5806C88.0352 95.9698 93.6147 103.008 101.229 105.387C106.329 106.633 109.065 106.314 113.782 104.935ZM113.026 87.5806C113.026 84.1396 110.219 81.333 106.778 81.333C103.337 81.333 100.53 84.1396 100.53 87.5806C100.53 91.0217 103.337 93.8283 106.778 93.8283C110.219 93.8283 113.026 91.0217 113.026 87.5806Z" fill="black"/>
<path fill-rule="evenodd" clip-rule="evenodd" d="M228.607 43.8472H212.988C212.988 19.7323 193.369 0.113846 169.254 0.113846H125.204H106.778C104.554 0.113846 90.0699 4.11928 87.9345 4.44264C73.2397 11.4956 63.0446 26.4863 63.0446 43.8472V75.0854H50.5494C43.7648 75.0854 38.2616 80.5215 38.0846 87.2695L38.0541 125.066C38.0541 131.958 43.6581 137.562 50.5494 137.562H64.5516C65.8054 141.592 67.7731 145.389 70.5613 148.638L94.5512 176.628C96.3206 178.69 98.3431 180.453 100.53 181.963V194.846L36.236 206.911C16.5748 210.59 0.568359 229.876 0.568359 249.888V300H275.464V249.888C275.464 229.876 259.457 210.59 239.79 206.905L175.502 194.852V181.969C177.689 180.459 179.712 178.696 181.481 176.634L205.471 148.644C208.259 145.396 210.233 141.598 211.481 137.568H225.483C232.374 137.568 237.978 131.964 237.978 125.072V87.5867C237.978 80.6954 232.374 75.0915 225.483 75.0915H212.988V68.8438H200.492V128.327C200.492 132.794 198.894 137.125 195.981 140.524L177.189 162.451L167.61 172.137C164.669 173.961 161.301 175.047 157.76 175.047H118.273C114.731 175.047 111.363 173.961 108.428 172.137L98.8495 162.439L80.0578 140.512C77.1384 137.119 75.5399 132.781 75.5399 128.321V43.8472C75.5399 30.0646 84.5727 18.4693 96.9887 14.3327L108.798 43.8472H167.235L179.044 14.3327C191.46 18.4693 200.492 30.0646 200.492 43.8472V56.3425H254.134L279.125 81.333H312.95V68.8377H284.298L271.803 56.3425H312.95V43.8472H244.226L253.597 31.352H312.95V18.8567H247.35L228.607 43.8472ZM225.483 125.066V87.5806H212.988V125.066H225.483ZM131.769 187.543H118.273C116.494 187.543 114.749 187.35 113.026 187.061V197.039L131.769 212.033V187.543ZM38.5422 219.18C24.7352 221.773 13.0636 235.837 13.0636 249.888V287.505H44.3017V218.107L38.5422 219.18ZM262.969 287.505V249.888C262.969 235.837 251.297 221.773 237.484 219.187L231.731 218.107V287.505H262.969ZM219.235 287.505V215.764L170.923 206.703L138.016 233.024L105.109 206.71L56.797 215.764V287.505H219.235ZM144.264 212.027L163.007 197.033V187.055C161.283 187.35 159.532 187.543 157.76 187.543H144.264V212.027ZM63.0446 87.5806H50.5494V125.066H63.0446V87.5806ZM109.758 12.6091L117.254 31.352H158.769L166.268 12.6091H109.758Z" stroke="white" stroke-width="4.5" mask="url(#path-6-inside-1)"/>
<path d="M157.589 137.562H118.444C111.484 138.08 106.456 138.275 106.61 143.034C106.764 147.794 110.706 149.579 117.254 150.057C117.254 150.057 149.947 150.555 158.779 150.057C167.61 149.559 169.411 146.912 169.428 143.047C169.445 139.182 164.813 138.235 157.589 137.562Z" stroke="white" stroke-width="4.5" mask="url(#path-6-inside-1)"/>
<path fill-rule="evenodd" clip-rule="evenodd" d="M174.809 105.399C182.418 103.008 187.997 95.9698 187.997 87.5806C187.997 77.2483 179.587 68.8377 169.254 68.8377C158.922 68.8377 150.511 77.2483 150.511 87.5806C150.511 95.4329 155.377 102.156 162.25 104.935C167.168 106.471 169.923 106.305 174.809 105.399ZM175.502 87.5806C175.502 84.1396 172.695 81.333 169.254 81.333C165.813 81.333 163.007 84.1396 163.007 87.5806C163.007 91.0217 165.813 93.8283 169.254 93.8283C172.695 93.8283 175.502 91.0217 175.502 87.5806Z" stroke="white" stroke-width="4.5" mask="url(#path-6-inside-1)"/>
<path fill-rule="evenodd" clip-rule="evenodd" d="M113.782 104.935C120.655 102.156 125.521 95.4329 125.521 87.5806C125.521 77.2483 117.11 68.8377 106.778 68.8377C96.4457 68.8377 88.0352 77.2483 88.0352 87.5806C88.0352 95.9698 93.6147 103.008 101.229 105.387C106.329 106.633 109.065 106.314 113.782 104.935ZM113.026 87.5806C113.026 84.1396 110.219 81.333 106.778 81.333C103.337 81.333 100.53 84.1396 100.53 87.5806C100.53 91.0217 103.337 93.8283 106.778 93.8283C110.219 93.8283 113.026 91.0217 113.026 87.5806Z" stroke="white" stroke-width="4.5" mask="url(#path-6-inside-1)"/>
<path d="M326.57 19.9817H336.816V30.227H326.57V19.9817Z" fill="black" stroke="white" stroke-width="2.25"/>
<path d="M326.57 69.9628H336.816V80.208H326.57V69.9628Z" fill="black" stroke="white" stroke-width="2.25"/>
</g>
<defs>
<clipPath id="clip0">
<rect width="337.941" height="300" fill="white"/>
</clipPath>
</defs>
</svg>
