<svg width="237" height="225" viewBox="0 0 237 225" fill="none" xmlns="http://www.w3.org/2000/svg">
<g clip-path="url(#clip0)">
<path d="M92.5684 95.3742C82.8159 95.3493 74.9158 87.4495 74.8906 77.697C74.891 67.9352 82.8052 60.0212 92.5671 60.0212C102.329 60.0212 110.244 67.9355 110.244 77.6977C110.244 87.4594 102.33 95.3735 92.5684 95.3742ZM83.1881 77.6512C83.1881 82.8312 87.3872 87.0302 92.5671 87.0302C97.7471 87.0302 101.946 82.8312 101.946 77.6512C101.946 72.4712 97.7471 68.2721 92.5671 68.2721C87.3872 68.2721 83.1881 72.4712 83.1881 77.6512Z" fill="black" stroke="white"/>
<path d="M144.356 95.3742C134.603 95.3493 126.703 87.4495 126.678 77.697C126.678 67.9352 134.592 60.0212 144.354 60.0212C154.116 60.0212 162.031 67.9355 162.031 77.6977C162.031 87.4594 154.118 95.3735 144.356 95.3742ZM134.975 77.6512C134.975 82.8312 139.174 87.0302 144.354 87.0302C149.534 87.0302 153.733 82.8312 153.733 77.6512C153.733 72.4712 149.534 68.2721 144.354 68.2721C139.174 68.2721 134.975 72.4712 134.975 77.6512Z" fill="black" stroke="white"/>
<path d="M177.669 59.8853L177.756 60.2064L178.086 60.2494C188.832 61.6507 197.429 69.8572 199.327 80.5263C201.73 94.0303 192.73 106.925 179.226 109.328L178.845 109.396L178.815 109.781C178.287 116.509 175.97 123.166 171.262 128.135C166.565 133.094 159.44 136.422 149.19 136.422H87.6869C80.8163 136.422 73.7613 134.641 68.2567 130.435C62.7695 126.243 58.7779 119.61 58.0632 109.802V109.402V108.982L57.65 108.91C46.9827 107.029 38.7648 98.4524 37.3413 87.7145C35.539 74.117 45.1007 61.6332 58.6981 59.8309L59.0306 59.7868L59.1159 59.4625C62.9429 44.9293 75.5977 39.3809 87.6869 39.3809H113.813H114.313V38.8809V29.5834V29.2192L113.966 29.1075C109.477 27.6606 105.959 24.1429 104.513 19.6544C102.03 11.9504 106.263 3.69305 113.966 1.2105C121.669 -1.27205 129.927 2.9603 132.41 10.6636C134.893 18.367 130.66 26.625 122.957 29.1075L122.61 29.2192V29.5834V39.2992V39.7992H123.11H149.19C157.742 39.7992 164.112 42.1195 168.711 45.7691C173.313 49.4212 176.18 54.435 177.669 59.8853ZM57.2801 100.676L57.9238 100.869V100.197V69.5624V68.8904L57.2801 69.0835C51.9695 70.6763 47.8142 74.831 46.2214 80.1422C43.605 88.8662 48.5561 98.06 57.2801 100.676ZM112.058 15.6571L112.058 15.6608C112.22 19.079 115.04 21.766 118.462 21.7622L118.466 21.7622C118.533 21.7615 118.599 21.7596 118.662 21.7572L118.663 21.7572C122.171 21.6178 124.902 18.6611 124.763 15.1525C124.623 11.6446 121.666 8.91307 118.158 9.05246C114.65 9.19184 111.919 12.1485 112.058 15.6571ZM178.999 100.197V100.869L179.643 100.676C184.953 99.083 189.109 94.9284 190.702 89.6171C193.318 80.8931 188.367 71.6999 179.643 69.0829L178.999 68.8898V69.5618V100.197ZM149.19 128.218C158.438 128.218 163.845 124.881 166.916 120.467C169.965 116.085 170.655 110.723 170.655 106.752V69.5624C170.655 65.6154 169.977 60.2532 166.934 55.8659C163.869 51.4454 158.461 48.0967 149.19 48.0967H87.6869C83.7399 48.0967 78.3778 48.7752 73.9905 51.8176C69.5699 54.8831 66.2212 60.2905 66.2212 69.5624V106.752C66.2212 116.001 69.5581 121.408 73.9724 124.479C78.3538 127.528 83.716 128.218 87.6869 128.218H149.19Z" fill="black" stroke="white"/>
<path d="M92.5686 108.461H144.355C146.647 108.461 148.504 110.318 148.504 112.61C148.504 114.901 146.647 116.758 144.355 116.758H92.5686C90.2775 116.758 88.4199 114.901 88.4199 112.61C88.4199 110.318 90.2775 108.461 92.5686 108.461Z" fill="black" stroke="white"/>
<path d="M114.148 176.747L113.061 177.634H114.464H130.827H130.873C132.062 177.635 133.193 178.147 133.979 179.038C135.494 180.757 135.33 183.378 133.612 184.894C133.611 184.894 133.611 184.894 133.611 184.894L104.208 210.72C102.669 211.764 100.622 211.656 99.2004 210.452C97.4608 208.98 97.2363 206.381 98.6913 204.633L118.792 186.993L119.79 186.117H118.462L101.401 186.117L101.399 186.117C100.135 186.122 98.9366 185.551 98.1452 184.565L98.1452 184.565C96.7114 182.778 96.9981 180.166 98.7852 178.732L98.7852 178.733L98.7902 178.728L128.077 154.602L128.077 154.602L128.08 154.599C129.846 153.12 132.475 153.353 133.954 155.118C135.432 156.882 135.2 159.51 133.437 160.989C133.437 160.99 133.436 160.991 133.435 160.991L114.148 176.747Z" fill="black" stroke="white"/>
<path d="M221.04 173.332L221.158 173.544L221.397 173.583C229.661 174.931 235.738 182.058 235.761 190.431C235.76 192.721 233.903 194.578 231.613 194.578C229.321 194.578 227.464 192.72 227.464 190.429C227.464 185.544 223.504 181.585 218.619 181.585C213.735 181.585 209.775 185.544 209.775 190.429C209.775 192.72 207.917 194.578 205.626 194.578C203.336 194.578 201.478 192.721 201.477 190.431C201.5 183.626 205.54 177.478 211.776 174.756L212.28 174.537L212.014 174.056L210.108 170.616L210.104 170.609L210.1 170.602C203.545 159.602 192.271 152.254 179.561 150.698L178.999 150.629L179 151.196L179.231 223.586H57.6935L58.0173 151.196L58.0198 150.629L57.4566 150.698C44.7211 152.254 33.4344 159.646 26.9164 170.697L26.9162 170.697L26.91 170.708L25.0505 174.055L24.7848 174.534L25.2849 174.755C31.4858 177.504 35.4863 183.647 35.4937 190.43C35.4934 192.721 33.6359 194.578 31.345 194.578C29.0538 194.578 27.1962 192.72 27.1962 190.429C27.1962 185.544 23.2365 181.585 18.3518 181.585C13.467 181.585 9.50732 185.544 9.50732 190.429C9.50732 192.72 7.64971 194.578 5.3586 194.578C3.06748 194.578 1.20987 192.72 1.2099 190.429L1.20985 190.424C1.12629 182.055 7.10596 174.853 15.3474 173.396L15.5827 173.354L15.6982 173.145L19.4135 166.411C19.4141 166.41 19.4147 166.409 19.4153 166.408C33.8905 141.08 62.1287 141.565 66.8551 141.647C67.0551 141.65 67.2131 141.653 67.3261 141.653H169.598C169.693 141.653 169.825 141.651 169.992 141.648C174.378 141.583 202.83 141.16 217.276 166.547C217.277 166.548 217.277 166.549 217.278 166.55L221.04 173.332ZM66.9542 149.95H66.4542V150.45V214.603V215.103H66.9542H170.202H170.702V214.603V150.45V149.95H170.202H66.9542Z" fill="black" stroke="white"/>
</g>
<defs>
<clipPath id="clip0">
<rect width="236.968" height="225" fill="white"/>
</clipPath>
</defs>
</svg>
